# xmcd CD database file
#
# Track frame offsets:
#	210
#	12205
#	25720
#	48807
#	67016
#	93759
#	114358
#	131788
#	149858
#	163897
#	186081
#	200946
#	211671
#	225466
#	239329
#	249718
#	265447
#	282160
#	299678
#
# Disc length: 4243 seconds
#
# Revision: 0
# Processed by: cddbd v1.5.1PL2 Copyright (c) Steve Scherf et al.
# Submitted via: CDex 1.51
#
DISCID=24109113
DTITLE=Montreux Jazz Festival - Montreux Jazz Festival Off 1999
DYEAR=1999
DGENRE=Jazz
TTITLE0=Down by the Riverside
TTITLE1=Rock'a My Soul
TTITLE2=Hold On
TTITLE3=Lifetime Sentence
TTITLE4=Flip Flop and Fly
TTITLE5=Don't tell Lies
TTITLE6=My Heart lives beyond the River
TTITLE7=A - Ja
TTITLE8=Cézembre
TTITLE9=Takahassanu
TTITLE10=Get it on
TTITLE11=Sing, Sing, Sing
TTITLE12=Lullaby of Birdland
TTITLE13=Cottontail
TTITLE14=Another You
TTITLE15=Mi Maná No Quiere
TTITLE16=Forró no Manguebeat
TTITLE17=Anjo Azul
TTITLE18=Chinga
EXTD=YEAR: 1999
EXTT0=
EXTT1=
EXTT2=
EXTT3=
EXTT4=
EXTT5=
EXTT6=
EXTT7=
EXTT8=
EXTT9=
EXTT10=
EXTT11=
EXTT12=
EXTT13=
EXTT14=
EXTT15=
EXTT16=
EXTT17=
EXTT18=
PLAYORDER=
